<svg width="3697" height="3100" viewBox="0 0 3697 3100" fill="none" xmlns="http://www.w3.org/2000/svg">
<path d="M1210.25 524.596V772.958C1050.35 772.958 920.155 912.165 920.155 1083.41H688.078C688.078 775.317 922.36 524.596 1210.25 524.596Z" fill="#008263"/>
<path d="M2486.71 152C2241.17 152 2011.77 261.404 1848.5 450.78C1685.23 261.404 1455.83 152 1210.29 152C730.353 152 340 565.896 340 1083.36C340 2206.2 1848.5 2883.98 1848.5 2883.98C1848.5 2883.98 3357 2206.2 3357 1083.36C3357 565.896 2966.65 152 2486.71 152ZM1848.5 2610.41C1544.25 2451.96 572.077 1882.84 572.077 1083.36C572.077 706.717 858.344 400.362 1210.29 400.362C1390.15 400.362 1556.32 478.1 1677.92 619.169L1763.21 718.142H1933.79L2019.08 619.169C2140.68 478.1 2306.85 400.362 2486.71 400.362C2838.66 400.362 3124.92 706.717 3124.92 1083.36C3124.92 1882.84 2152.75 2451.96 1848.5 2610.41Z" fill="#008263"/>
</svg>
