<svg width="1683" height="196" viewBox="0 0 1683 196" fill="none" xmlns="http://www.w3.org/2000/svg">
<path d="M97.725 62.1738L96.775 64.2156L95.825 62.1738L59.9001 79.164V192.578H65.3658V82.6729L96.775 67.8124L128.191 82.6729V192.578H133.65V79.164L97.725 62.1738Z" fill="#D6AE21"/>
<path d="M93.8897 65.2653C92.3176 57.9365 82.8714 55.2997 74.5425 52.974C71.639 52.1627 68.8962 51.3919 66.6015 50.4522C57.1821 46.6052 46.505 42.2444 40.5108 31.7785C36.6039 24.9567 36.6106 16.1135 40.5175 9.2579C44.0431 3.08518 49.9971 -0.356124 57.0416 0.0292485C69.9599 0.678297 80.3627 11.9285 88.8321 34.4153C91.1736 40.6353 93.3746 46.9703 95.3682 53.2377C95.7161 54.3262 96.2513 55.5229 96.7998 56.7601C97.9238 59.2955 99.0811 61.9254 99.2751 64.4608L93.883 65.2586L93.8897 65.2653ZM56.0582 5.52587C49.8767 5.52587 46.6388 9.59594 45.254 12.0231C42.297 17.1952 42.2903 23.8682 45.2406 29.0133C50.2982 37.8431 59.6306 41.6495 68.6553 45.3409C70.6556 46.159 73.2513 46.8824 76.0009 47.6531C80.3493 48.8634 85.1928 50.2223 89.354 52.3858C87.6079 47.0447 85.7213 41.6765 83.7344 36.3827C76.1213 16.1608 67.304 6.07351 56.774 5.5394L56.0649 5.51911L56.0582 5.52587Z" fill="#D6AE21"/>
<path d="M100.655 65.2734L95.2632 64.4756C95.4572 61.9335 96.6212 59.3035 97.7451 56.7614C98.287 55.5309 98.8222 54.341 99.1701 53.2525C101.19 46.9243 103.391 40.5893 105.706 34.4301C114.176 11.9433 124.578 0.693145 137.497 0.0440974C144.508 -0.320992 150.502 3.10004 154.027 9.28628C157.934 16.1418 157.934 24.9716 154.027 31.7934C148.02 42.2728 137.349 46.6268 127.937 50.467C125.642 51.4068 122.899 52.1708 119.996 52.9821C111.667 55.3146 102.221 57.9514 100.642 65.2802L100.655 65.2734ZM138.48 5.53396L137.771 5.55425C127.248 6.0816 118.43 16.1756 110.817 36.3976C108.844 41.6373 106.957 47.0122 105.198 52.3939C109.359 50.2304 114.202 48.8714 118.551 47.6612C121.3 46.8905 123.896 46.1671 125.896 45.349C134.914 41.6643 144.24 37.8579 149.304 29.0214C152.255 23.8831 152.255 17.2101 149.298 12.038C147.92 9.60404 144.668 5.53396 138.48 5.53396Z" fill="#D6AE21"/>
<path d="M154.586 60.459L131.189 79.1267L126.548 82.8561L96.7933 106.588L66.6994 82.7077L62.0158 78.9784L38.6824 60.459H8.07983V190.688H38.8095V100.062L56.5692 113.305L62.1217 117.437L89.4182 137.779H104.19L130.872 117.882L136.403 113.771L154.798 100.062V190.688H185.507V60.459H154.586Z" fill="#212121"/>
<path d="M224.683 62.7324H255.11V192.657H224.683V62.7324Z" fill="#212121"/>
<path d="M364.593 166.683V192.657H297.612V62.7324H327.664V166.683H364.593Z" fill="#212121"/>
<path d="M466.327 166.683V192.657H399.346V62.7324H429.398V166.683H466.327Z" fill="#212121"/>
<path d="M531.129 86.858V116.362H580.298V139.931H531.129V168.518H580.298V192.643H501.063V62.7324H580.298V86.858H531.129Z" fill="#212121"/>
<path d="M669.351 62.7324C712.393 62.7324 736.888 94.4736 736.888 127.702C736.888 160.93 712.588 192.657 669.351 192.657H621.668V62.7324H669.351ZM651.72 88.7202V166.67H667.864C692.178 166.67 706.28 147.742 706.28 127.688C706.28 107.634 692.178 88.7202 667.864 88.7202H651.72Z" fill="#212121"/>
<path d="M766.425 127.695C766.425 92.0629 792.031 59.3906 835.268 59.3906C878.505 59.3906 903.916 92.0629 903.916 127.695C903.916 163.328 878.31 196 835.268 196C792.226 196 766.425 163.328 766.425 127.695ZM873.309 127.695C873.309 106.349 858.832 86.5041 835.268 86.5041C811.705 86.5041 797.227 106.363 797.227 127.695C797.227 149.028 811.51 168.901 835.268 168.901C859.026 168.901 873.309 149.041 873.309 127.695Z" fill="#212121"/>
<path d="M1018.27 147.366V62.7324H1048.16V192.657H1016.79L970.021 109.149V192.657H939.969V62.7324H971.327L1018.27 147.366Z" fill="#212121"/>
<path d="M1090.67 62.7324H1121.1V192.657H1090.67V62.7324Z" fill="#212121"/>
<path d="M1.67608 44.9609V30.3351H11.543V32.0611H3.61156V36.5905H10.4755V38.3165H3.61156V44.9609H1.67608ZM13.8477 32.4003V30.3351H15.6435V32.4003H13.8477ZM13.8477 44.9609V34.3657H15.6435V44.9609H13.8477ZM18.387 44.9609V34.3657H20.0033V35.8722C20.7815 34.7082 21.9055 34.1262 23.3754 34.1262C24.0139 34.1262 24.5992 34.2426 25.1313 34.4754C25.67 34.7016 26.0724 35.0009 26.3385 35.3733C26.6045 35.7458 26.7907 36.1881 26.8972 36.7002C26.9637 37.0328 26.9969 37.6148 26.9969 38.4462V44.9609H25.2011V38.516C25.2011 37.7844 25.1313 37.239 24.9916 36.8798C24.8519 36.514 24.6025 36.2247 24.2434 36.0118C23.8909 35.7924 23.4752 35.6826 22.9963 35.6826C22.2314 35.6826 21.5696 35.9254 21.0109 36.4109C20.4589 36.8964 20.1829 37.8176 20.1829 39.1745V44.9609H18.387ZM36.6344 44.9609V43.6241C35.9627 44.6749 34.975 45.2004 33.6713 45.2004C32.8266 45.2004 32.0485 44.9676 31.3368 44.502C30.6318 44.0364 30.0831 43.3879 29.6906 42.5566C29.3049 41.7185 29.112 40.7574 29.112 39.6733C29.112 38.6158 29.2882 37.658 29.6408 36.8C29.9933 35.9354 30.522 35.2736 31.2271 34.8146C31.9321 34.3557 32.7202 34.1262 33.5915 34.1262C34.23 34.1262 34.7987 34.2626 35.2975 34.5353C35.7964 34.8013 36.2021 35.1505 36.5147 35.5828V30.3351H38.3005V44.9609H36.6344ZM30.9577 39.6733C30.9577 41.0301 31.2437 42.0444 31.8157 42.7162C32.3877 43.3879 33.0628 43.7238 33.8409 43.7238C34.6258 43.7238 35.2909 43.4046 35.8363 42.7661C36.3883 42.1209 36.6644 41.1399 36.6644 39.8229C36.6644 38.373 36.385 37.3088 35.8263 36.6304C35.2676 35.952 34.5792 35.6128 33.7611 35.6128C32.963 35.6128 32.2946 35.9387 31.7558 36.5905C31.2237 37.2423 30.9577 38.2699 30.9577 39.6733ZM41.1439 32.4003V30.3351H42.9397V32.4003H41.1439ZM41.1439 44.9609V34.3657H42.9397V44.9609H41.1439ZM45.6833 44.9609V34.3657H47.2995V35.8722C48.0777 34.7082 49.2017 34.1262 50.6716 34.1262C51.3101 34.1262 51.8954 34.2426 52.4275 34.4754C52.9663 34.7016 53.3687 35.0009 53.6347 35.3733C53.9008 35.7458 54.087 36.1881 54.1934 36.7002C54.2599 37.0328 54.2932 37.6148 54.2932 38.4462V44.9609H52.4974V38.516C52.4974 37.7844 52.4275 37.239 52.2879 36.8798C52.1482 36.514 51.8988 36.2247 51.5396 36.0118C51.1871 35.7924 50.7714 35.6826 50.2925 35.6826C49.5276 35.6826 48.8658 35.9254 48.3072 36.4109C47.7551 36.8964 47.4791 37.8176 47.4791 39.1745V44.9609H45.6833ZM56.7275 45.8389L58.4734 46.0983C58.5466 46.637 58.7494 47.0294 59.082 47.2755C59.5276 47.6081 60.1362 47.7744 60.9077 47.7744C61.7391 47.7744 62.3809 47.6081 62.8332 47.2755C63.2855 46.943 63.5915 46.4774 63.7511 45.8788C63.8442 45.513 63.8874 44.7448 63.8808 43.5742C63.0959 44.4987 62.1182 44.9609 60.9476 44.9609C59.491 44.9609 58.3637 44.4355 57.5655 43.3846C56.7674 42.3337 56.3683 41.0734 56.3683 39.6035C56.3683 38.5925 56.5512 37.6613 56.917 36.81C57.2829 35.952 57.8116 35.2902 58.5033 34.8246C59.2017 34.359 60.0198 34.1262 60.9576 34.1262C62.208 34.1262 63.2389 34.6317 64.0504 35.6427V34.3657H65.7065V43.5243C65.7065 45.1738 65.5369 46.341 65.1977 47.0261C64.8651 47.7178 64.3331 48.2632 63.6014 48.6623C62.8765 49.0614 61.9819 49.2609 60.9177 49.2609C59.654 49.2609 58.633 48.9749 57.8549 48.4029C57.0767 47.8376 56.7009 46.9829 56.7275 45.8389ZM58.214 39.4738C58.214 40.8638 58.49 41.8781 59.0421 42.5166C59.5941 43.1552 60.2858 43.4744 61.1172 43.4744C61.942 43.4744 62.6337 43.1585 63.1924 42.5266C63.7511 41.8881 64.0304 40.8904 64.0304 39.5336C64.0304 38.2366 63.7411 37.2589 63.1625 36.6005C62.5905 35.942 61.8987 35.6128 61.0873 35.6128C60.2892 35.6128 59.6107 35.9387 59.0521 36.5905C58.4934 37.2357 58.214 38.1967 58.214 39.4738ZM81.0307 43.654C80.3656 44.2193 79.7238 44.6184 79.1052 44.8512C78.4933 45.084 77.8348 45.2004 77.1298 45.2004C75.9659 45.2004 75.0713 44.9177 74.4461 44.3524C73.8209 43.7804 73.5083 43.0521 73.5083 42.1675C73.5083 41.6487 73.6247 41.1764 73.8575 40.7508C74.0969 40.3184 74.4062 39.9726 74.7853 39.7132C75.1711 39.4538 75.6034 39.2576 76.0823 39.1246C76.4348 39.0315 76.9669 38.9417 77.6785 38.8552C79.1285 38.6823 80.196 38.4761 80.8811 38.2366C80.8877 37.9906 80.891 37.8343 80.891 37.7677C80.891 37.0361 80.7214 36.5207 80.3822 36.2214C79.9233 35.8156 79.2416 35.6128 78.337 35.6128C77.4923 35.6128 76.8671 35.7624 76.4614 36.0617C76.0623 36.3544 75.7663 36.8765 75.5735 37.6281L73.8176 37.3886C73.9772 36.637 74.2399 36.0318 74.6057 35.5729C74.9715 35.1073 75.5003 34.7515 76.192 34.5054C76.8837 34.2526 77.6852 34.1262 78.5964 34.1262C79.5009 34.1262 80.2359 34.2327 80.8012 34.4455C81.3666 34.6583 81.7823 34.9277 82.0483 35.2536C82.3144 35.5729 82.5006 35.9786 82.607 36.4708C82.6669 36.7767 82.6968 37.3288 82.6968 38.1269V40.5213C82.6968 42.1907 82.7334 43.2483 82.8066 43.6939C82.8864 44.1329 83.0393 44.5552 83.2655 44.9609H81.3899C81.2036 44.5885 81.0839 44.1528 81.0307 43.654ZM80.8811 39.6434C80.2292 39.9094 79.2515 40.1355 77.9479 40.3218C77.2096 40.4282 76.6875 40.5479 76.3816 40.6809C76.0756 40.814 75.8395 41.0102 75.6732 41.2696C75.5069 41.5223 75.4238 41.805 75.4238 42.1176C75.4238 42.5965 75.6034 42.9955 75.9625 43.3148C76.3284 43.634 76.8604 43.7937 77.5588 43.7937C78.2505 43.7937 78.8658 43.644 79.4045 43.3447C79.9432 43.0388 80.339 42.6231 80.5917 42.0976C80.7846 41.6919 80.8811 41.0933 80.8811 40.3018V39.6434ZM85.4903 44.9609V34.3657H87.1065V35.8722C87.8847 34.7082 89.0087 34.1262 90.4786 34.1262C91.1171 34.1262 91.7024 34.2426 92.2345 34.4754C92.7733 34.7016 93.1757 35.0009 93.4417 35.3733C93.7078 35.7458 93.894 36.1881 94.0004 36.7002C94.0669 37.0328 94.1002 37.6148 94.1002 38.4462V44.9609H92.3044V38.516C92.3044 37.7844 92.2345 37.239 92.0949 36.8798C91.9552 36.514 91.7058 36.2247 91.3466 36.0118C90.9941 35.7924 90.5784 35.6826 90.0995 35.6826C89.3346 35.6826 88.6729 35.9254 88.1142 36.4109C87.5621 36.8964 87.2861 37.8176 87.2861 39.1745V44.9609H85.4903ZM103.738 44.9609V43.6241C103.066 44.6749 102.078 45.2004 100.775 45.2004C99.9299 45.2004 99.1517 44.9676 98.44 44.502C97.735 44.0364 97.1863 43.3879 96.7939 42.5566C96.4081 41.7185 96.2152 40.7574 96.2152 39.6733C96.2152 38.6158 96.3915 37.658 96.744 36.8C97.0965 35.9354 97.6253 35.2736 98.3303 34.8146C99.0353 34.3557 99.8235 34.1262 100.695 34.1262C101.333 34.1262 101.902 34.2626 102.401 34.5353C102.9 34.8013 103.305 35.1505 103.618 35.5828V30.3351H105.404V44.9609H103.738ZM98.0609 39.6733C98.0609 41.0301 98.3469 42.0444 98.9189 42.7162C99.4909 43.3879 100.166 43.7238 100.944 43.7238C101.729 43.7238 102.394 43.4046 102.94 42.7661C103.492 42.1209 103.768 41.1399 103.768 39.8229C103.768 38.373 103.488 37.3088 102.93 36.6304C102.371 35.952 101.682 35.6128 100.864 35.6128C100.066 35.6128 99.3978 35.9387 98.8591 36.5905C98.327 37.2423 98.0609 38.2699 98.0609 39.6733ZM113.206 41.7983L114.981 41.519C115.081 42.2306 115.357 42.776 115.809 43.1552C116.268 43.5343 116.907 43.7238 117.725 43.7238C118.55 43.7238 119.162 43.5575 119.561 43.225C119.96 42.8858 120.159 42.49 120.159 42.0378C120.159 41.632 119.983 41.3128 119.631 41.08C119.384 40.9204 118.773 40.7175 117.795 40.4714C116.478 40.1389 115.563 39.8529 115.051 39.6134C114.546 39.3673 114.16 39.0315 113.894 38.6058C113.635 38.1735 113.505 37.6979 113.505 37.1791C113.505 36.7069 113.611 36.2712 113.824 35.8722C114.044 35.4665 114.34 35.1306 114.712 34.8645C114.991 34.6583 115.37 34.4854 115.849 34.3457C116.335 34.1994 116.854 34.1262 117.406 34.1262C118.237 34.1262 118.965 34.246 119.591 34.4854C120.222 34.7248 120.688 35.0508 120.987 35.4631C121.287 35.8688 121.493 36.4142 121.606 37.0993L119.85 37.3387C119.77 36.7934 119.537 36.3677 119.152 36.0617C118.773 35.7558 118.234 35.6028 117.535 35.6028C116.711 35.6028 116.122 35.7391 115.77 36.0118C115.417 36.2845 115.241 36.6038 115.241 36.9696C115.241 37.2024 115.314 37.4119 115.46 37.5981C115.607 37.791 115.836 37.9506 116.149 38.077C116.328 38.1435 116.857 38.2965 117.735 38.5359C119.005 38.8752 119.89 39.1545 120.389 39.374C120.894 39.5868 121.29 39.8994 121.576 40.3118C121.862 40.7242 122.005 41.2363 122.005 41.8482C122.005 42.4468 121.829 43.0122 121.476 43.5442C121.13 44.0697 120.628 44.4787 119.97 44.7714C119.311 45.0574 118.566 45.2004 117.735 45.2004C116.358 45.2004 115.307 44.9144 114.582 44.3424C113.864 43.7704 113.405 42.9224 113.206 41.7983ZM124.14 44.9609V30.3351H125.936V35.5828C126.774 34.6118 127.831 34.1262 129.108 34.1262C129.893 34.1262 130.575 34.2825 131.154 34.5952C131.732 34.9011 132.145 35.3268 132.391 35.8722C132.643 36.4176 132.77 37.209 132.77 38.2466V44.9609H130.974V38.2466C130.974 37.3487 130.778 36.6969 130.385 36.2912C130 35.8788 129.451 35.6726 128.739 35.6726C128.207 35.6726 127.705 35.8123 127.233 36.0917C126.767 36.3644 126.435 36.7368 126.235 37.209C126.036 37.6813 125.936 38.3331 125.936 39.1645V44.9609H124.14ZM142.427 43.654C141.762 44.2193 141.12 44.6184 140.502 44.8512C139.89 45.084 139.231 45.2004 138.526 45.2004C137.362 45.2004 136.468 44.9177 135.843 44.3524C135.217 43.7804 134.905 43.0521 134.905 42.1675C134.905 41.6487 135.021 41.1764 135.254 40.7508C135.493 40.3184 135.803 39.9726 136.182 39.7132C136.568 39.4538 137 39.2576 137.479 39.1246C137.831 39.0315 138.363 38.9417 139.075 38.8552C140.525 38.6823 141.593 38.4761 142.278 38.2366C142.284 37.9906 142.288 37.8343 142.288 37.7677C142.288 37.0361 142.118 36.5207 141.779 36.2214C141.32 35.8156 140.638 35.6128 139.734 35.6128C138.889 35.6128 138.264 35.7624 137.858 36.0617C137.459 36.3544 137.163 36.8765 136.97 37.6281L135.214 37.3886C135.374 36.637 135.636 36.0318 136.002 35.5729C136.368 35.1073 136.897 34.7515 137.589 34.5054C138.28 34.2526 139.082 34.1262 139.993 34.1262C140.898 34.1262 141.632 34.2327 142.198 34.4455C142.763 34.6583 143.179 34.9277 143.445 35.2536C143.711 35.5729 143.897 35.9786 144.004 36.4708C144.063 36.7767 144.093 37.3288 144.093 38.1269V40.5213C144.093 42.1907 144.13 43.2483 144.203 43.6939C144.283 44.1329 144.436 44.5552 144.662 44.9609H142.786C142.6 44.5885 142.48 44.1528 142.427 43.654ZM142.278 39.6434C141.626 39.9094 140.648 40.1355 139.344 40.3218C138.606 40.4282 138.084 40.5479 137.778 40.6809C137.472 40.814 137.236 41.0102 137.07 41.2696C136.904 41.5223 136.82 41.805 136.82 42.1176C136.82 42.5965 137 42.9955 137.359 43.3148C137.725 43.634 138.257 43.7937 138.955 43.7937C139.647 43.7937 140.262 43.644 140.801 43.3447C141.34 43.0388 141.736 42.6231 141.988 42.0976C142.181 41.6919 142.278 41.0933 142.278 40.3018V39.6434ZM146.867 44.9609V34.3657H148.483V35.9719C148.896 35.2204 149.275 34.7248 149.62 34.4854C149.973 34.246 150.359 34.1262 150.778 34.1262C151.383 34.1262 151.998 34.3191 152.623 34.7049L152.005 36.371C151.566 36.1116 151.127 35.9819 150.688 35.9819C150.296 35.9819 149.943 36.1016 149.63 36.3411C149.318 36.5739 149.095 36.8998 148.962 37.3188C148.762 37.9573 148.663 38.6557 148.663 39.4139V44.9609H146.867ZM153.701 32.4003V30.3351H155.497V32.4003H153.701ZM153.701 44.9609V34.3657H155.497V44.9609H153.701ZM158.24 44.9609V34.3657H159.857V35.8722C160.635 34.7082 161.759 34.1262 163.229 34.1262C163.867 34.1262 164.453 34.2426 164.985 34.4754C165.523 34.7016 165.926 35.0009 166.192 35.3733C166.458 35.7458 166.644 36.1881 166.75 36.7002C166.817 37.0328 166.85 37.6148 166.85 38.4462V44.9609H165.054V38.516C165.054 37.7844 164.985 37.239 164.845 36.8798C164.705 36.514 164.456 36.2247 164.097 36.0118C163.744 35.7924 163.328 35.6826 162.85 35.6826C162.085 35.6826 161.423 35.9254 160.864 36.4109C160.312 36.8964 160.036 37.8176 160.036 39.1745V44.9609H158.24ZM169.285 45.8389L171.03 46.0983C171.104 46.637 171.306 47.0294 171.639 47.2755C172.085 47.6081 172.693 47.7744 173.465 47.7744C174.296 47.7744 174.938 47.6081 175.39 47.2755C175.843 46.943 176.149 46.4774 176.308 45.8788C176.401 45.513 176.444 44.7448 176.438 43.5742C175.653 44.4987 174.675 44.9609 173.505 44.9609C172.048 44.9609 170.921 44.4355 170.123 43.3846C169.324 42.3337 168.925 41.0734 168.925 39.6035C168.925 38.5925 169.108 37.6613 169.474 36.81C169.84 35.952 170.369 35.2902 171.06 34.8246C171.759 34.359 172.577 34.1262 173.515 34.1262C174.765 34.1262 175.796 34.6317 176.607 35.6427V34.3657H178.264V43.5243C178.264 45.1738 178.094 46.341 177.755 47.0261C177.422 47.7178 176.89 48.2632 176.158 48.6623C175.434 49.0614 174.539 49.2609 173.475 49.2609C172.211 49.2609 171.19 48.9749 170.412 48.4029C169.634 47.8376 169.258 46.9829 169.285 45.8389ZM170.771 39.4738C170.771 40.8638 171.047 41.8781 171.599 42.5166C172.151 43.1552 172.843 43.4744 173.674 43.4744C174.499 43.4744 175.191 43.1585 175.749 42.5266C176.308 41.8881 176.587 40.8904 176.587 39.5336C176.587 38.2366 176.298 37.2589 175.72 36.6005C175.148 35.942 174.456 35.6128 173.644 35.6128C172.846 35.6128 172.168 35.9387 171.609 36.5905C171.05 37.2357 170.771 38.1967 170.771 39.4738ZM186.345 45.8389L188.091 46.0983C188.164 46.637 188.367 47.0294 188.699 47.2755C189.145 47.6081 189.753 47.7744 190.525 47.7744C191.356 47.7744 191.998 47.6081 192.45 47.2755C192.903 46.943 193.209 46.4774 193.368 45.8788C193.461 45.513 193.505 44.7448 193.498 43.5742C192.713 44.4987 191.735 44.9609 190.565 44.9609C189.108 44.9609 187.981 44.4355 187.183 43.3846C186.385 42.3337 185.986 41.0734 185.986 39.6035C185.986 38.5925 186.168 37.6613 186.534 36.81C186.9 35.952 187.429 35.2902 188.121 34.8246C188.819 34.359 189.637 34.1262 190.575 34.1262C191.825 34.1262 192.856 34.6317 193.668 35.6427V34.3657H195.324V43.5243C195.324 45.1738 195.154 46.341 194.815 47.0261C194.482 47.7178 193.95 48.2632 193.219 48.6623C192.494 49.0614 191.599 49.2609 190.535 49.2609C189.271 49.2609 188.25 48.9749 187.472 48.4029C186.694 47.8376 186.318 46.9829 186.345 45.8389ZM187.831 39.4738C187.831 40.8638 188.107 41.8781 188.659 42.5166C189.211 43.1552 189.903 43.4744 190.734 43.4744C191.559 43.4744 192.251 43.1585 192.81 42.5266C193.368 41.8881 193.648 40.8904 193.648 39.5336C193.648 38.2366 193.358 37.2589 192.78 36.6005C192.208 35.942 191.516 35.6128 190.705 35.6128C189.906 35.6128 189.228 35.9387 188.669 36.5905C188.111 37.2357 187.831 38.1967 187.831 39.4738ZM198.057 32.4003V30.3351H199.853V32.4003H198.057ZM198.057 44.9609V34.3657H199.853V44.9609H198.057ZM203.026 44.9609V35.7624H201.439V34.3657H203.026V33.2383C203.026 32.5267 203.089 31.9979 203.215 31.652C203.388 31.1864 203.691 30.8107 204.123 30.5247C204.562 30.232 205.174 30.0857 205.959 30.0857C206.464 30.0857 207.023 30.1455 207.635 30.2653L207.366 31.8316C206.993 31.7651 206.641 31.7318 206.308 31.7318C205.763 31.7318 205.377 31.8482 205.151 32.081C204.925 32.3138 204.812 32.7495 204.812 33.388V34.3657H206.877V35.7624H204.812V44.9609H203.026ZM212.204 43.3547L212.464 44.941C211.958 45.0474 211.506 45.1006 211.107 45.1006C210.455 45.1006 209.95 44.9975 209.59 44.7913C209.231 44.5851 208.978 44.3158 208.832 43.9832C208.686 43.644 208.613 42.9357 208.613 41.8582V35.7624H207.296V34.3657H208.613V31.7418L210.398 30.6643V34.3657H212.204V35.7624H210.398V41.958C210.398 42.4701 210.428 42.7993 210.488 42.9456C210.555 43.092 210.658 43.2084 210.798 43.2948C210.944 43.3813 211.15 43.4245 211.416 43.4245C211.616 43.4245 211.878 43.4012 212.204 43.3547ZM213.252 41.7983L215.028 41.519C215.127 42.2306 215.403 42.776 215.856 43.1552C216.315 43.5343 216.953 43.7238 217.771 43.7238C218.596 43.7238 219.208 43.5575 219.607 43.225C220.006 42.8858 220.206 42.49 220.206 42.0378C220.206 41.632 220.029 41.3128 219.677 41.08C219.431 40.9204 218.819 40.7175 217.841 40.4714C216.524 40.1389 215.61 39.8529 215.098 39.6134C214.592 39.3673 214.206 39.0315 213.94 38.6058C213.681 38.1735 213.551 37.6979 213.551 37.1791C213.551 36.7069 213.658 36.2712 213.87 35.8722C214.09 35.4665 214.386 35.1306 214.758 34.8645C215.038 34.6583 215.417 34.4854 215.896 34.3457C216.381 34.1994 216.9 34.1262 217.452 34.1262C218.283 34.1262 219.012 34.246 219.637 34.4854C220.269 34.7248 220.734 35.0508 221.034 35.4631C221.333 35.8688 221.539 36.4142 221.652 37.0993L219.896 37.3387C219.817 36.7934 219.584 36.3677 219.198 36.0617C218.819 35.7558 218.28 35.6028 217.582 35.6028C216.757 35.6028 216.168 35.7391 215.816 36.0118C215.463 36.2845 215.287 36.6038 215.287 36.9696C215.287 37.2024 215.36 37.4119 215.507 37.5981C215.653 37.791 215.882 37.9506 216.195 38.077C216.375 38.1435 216.903 38.2965 217.781 38.5359C219.052 38.8752 219.936 39.1545 220.435 39.374C220.941 39.5868 221.336 39.8994 221.622 40.3118C221.908 40.7242 222.051 41.2363 222.051 41.8482C222.051 42.4468 221.875 43.0122 221.523 43.5442C221.177 44.0697 220.674 44.4787 220.016 44.7714C219.358 45.0574 218.613 45.2004 217.781 45.2004C216.404 45.2004 215.354 44.9144 214.629 44.3424C213.91 43.7704 213.451 42.9224 213.252 41.7983ZM229.883 32.4003V30.3351H231.679V32.4003H229.883ZM229.883 44.9609V34.3657H231.679V44.9609H229.883ZM241.296 44.9609V43.6241C240.625 44.6749 239.637 45.2004 238.333 45.2004C237.489 45.2004 236.71 44.9676 235.999 44.502C235.294 44.0364 234.745 43.3879 234.353 42.5566C233.967 41.7185 233.774 40.7574 233.774 39.6733C233.774 38.6158 233.95 37.658 234.303 36.8C234.655 35.9354 235.184 35.2736 235.889 34.8146C236.594 34.3557 237.382 34.1262 238.253 34.1262C238.892 34.1262 239.461 34.2626 239.959 34.5353C240.458 34.8013 240.864 35.1505 241.177 35.5828V30.3351H242.962V44.9609H241.296ZM235.62 39.6733C235.62 41.0301 235.906 42.0444 236.478 42.7162C237.05 43.3879 237.725 43.7238 238.503 43.7238C239.288 43.7238 239.953 43.4046 240.498 42.7661C241.05 42.1209 241.326 41.1399 241.326 39.8229C241.326 38.373 241.047 37.3088 240.488 36.6304C239.93 35.952 239.241 35.6128 238.423 35.6128C237.625 35.6128 236.956 35.9387 236.418 36.5905C235.886 37.2423 235.62 38.2699 235.62 39.6733ZM253.049 41.5489L254.905 41.7784C254.612 42.8625 254.07 43.7039 253.278 44.3025C252.487 44.9011 251.476 45.2004 250.245 45.2004C248.696 45.2004 247.465 44.7248 246.554 43.7737C245.649 42.8159 245.197 41.4757 245.197 39.7531C245.197 37.9706 245.656 36.5872 246.574 35.6028C247.492 34.6184 248.682 34.1262 250.146 34.1262C251.562 34.1262 252.72 34.6085 253.618 35.5729C254.515 36.5373 254.964 37.8941 254.964 39.6434C254.964 39.7498 254.961 39.9094 254.954 40.1222H247.053C247.119 41.2862 247.449 42.1774 248.041 42.796C248.633 43.4145 249.371 43.7238 250.255 43.7238C250.914 43.7238 251.476 43.5509 251.941 43.205C252.407 42.8592 252.776 42.3071 253.049 41.5489ZM247.153 38.6457H253.069C252.989 37.7544 252.763 37.086 252.39 36.6404C251.818 35.9487 251.077 35.6028 250.166 35.6028C249.341 35.6028 248.646 35.8788 248.08 36.4309C247.522 36.9829 247.213 37.7212 247.153 38.6457ZM264.083 43.654C263.418 44.2193 262.776 44.6184 262.158 44.8512C261.546 45.084 260.887 45.2004 260.182 45.2004C259.018 45.2004 258.124 44.9177 257.498 44.3524C256.873 43.7804 256.561 43.0521 256.561 42.1675C256.561 41.6487 256.677 41.1764 256.91 40.7508C257.149 40.3184 257.459 39.9726 257.838 39.7132C258.223 39.4538 258.656 39.2576 259.135 39.1246C259.487 39.0315 260.019 38.9417 260.731 38.8552C262.181 38.6823 263.248 38.4761 263.933 38.2366C263.94 37.9906 263.943 37.8343 263.943 37.7677C263.943 37.0361 263.774 36.5207 263.435 36.2214C262.976 35.8156 262.294 35.6128 261.389 35.6128C260.545 35.6128 259.919 35.7624 259.514 36.0617C259.115 36.3544 258.819 36.8765 258.626 37.6281L256.87 37.3886C257.03 36.637 257.292 36.0318 257.658 35.5729C258.024 35.1073 258.553 34.7515 259.244 34.5054C259.936 34.2526 260.738 34.1262 261.649 34.1262C262.553 34.1262 263.288 34.2327 263.854 34.4455C264.419 34.6583 264.835 34.9277 265.101 35.2536C265.367 35.5729 265.553 35.9786 265.659 36.4708C265.719 36.7767 265.749 37.3288 265.749 38.1269V40.5213C265.749 42.1907 265.786 43.2483 265.859 43.6939C265.939 44.1329 266.092 44.5552 266.318 44.9609H264.442C264.256 44.5885 264.136 44.1528 264.083 43.654ZM263.933 39.6434C263.282 39.9094 262.304 40.1355 261 40.3218C260.262 40.4282 259.74 40.5479 259.434 40.6809C259.128 40.814 258.892 41.0102 258.726 41.2696C258.559 41.5223 258.476 41.805 258.476 42.1176C258.476 42.5965 258.656 42.9955 259.015 43.3148C259.381 43.634 259.913 43.7937 260.611 43.7937C261.303 43.7937 261.918 43.644 262.457 43.3447C262.996 43.0388 263.391 42.6231 263.644 42.0976C263.837 41.6919 263.933 41.0933 263.933 40.3018V39.6434ZM267.824 41.7983L269.6 41.519C269.7 42.2306 269.976 42.776 270.428 43.1552C270.887 43.5343 271.526 43.7238 272.344 43.7238C273.169 43.7238 273.78 43.5575 274.18 43.225C274.579 42.8858 274.778 42.49 274.778 42.0378C274.778 41.632 274.602 41.3128 274.249 41.08C274.003 40.9204 273.391 40.7175 272.414 40.4714C271.097 40.1389 270.182 39.8529 269.67 39.6134C269.165 39.3673 268.779 39.0315 268.513 38.6058C268.253 38.1735 268.124 37.6979 268.124 37.1791C268.124 36.7069 268.23 36.2712 268.443 35.8722C268.662 35.4665 268.958 35.1306 269.331 34.8645C269.61 34.6583 269.989 34.4854 270.468 34.3457C270.954 34.1994 271.473 34.1262 272.025 34.1262C272.856 34.1262 273.584 34.246 274.209 34.4854C274.841 34.7248 275.307 35.0508 275.606 35.4631C275.905 35.8688 276.112 36.4142 276.225 37.0993L274.469 37.3387C274.389 36.7934 274.156 36.3677 273.77 36.0617C273.391 35.7558 272.853 35.6028 272.154 35.6028C271.33 35.6028 270.741 35.7391 270.388 36.0118C270.036 36.2845 269.86 36.6038 269.86 36.9696C269.86 37.2024 269.933 37.4119 270.079 37.5981C270.225 37.791 270.455 37.9506 270.767 38.077C270.947 38.1435 271.476 38.2965 272.354 38.5359C273.624 38.8752 274.509 39.1545 275.008 39.374C275.513 39.5868 275.909 39.8994 276.195 40.3118C276.481 40.7242 276.624 41.2363 276.624 41.8482C276.624 42.4468 276.448 43.0122 276.095 43.5442C275.749 44.0697 275.247 44.4787 274.589 44.7714C273.93 45.0574 273.185 45.2004 272.354 45.2004C270.977 45.2004 269.926 44.9144 269.201 44.3424C268.483 43.7704 268.024 42.9224 267.824 41.7983Z" fill="#212121"/>
</svg>
