<svg width="781" height="553" viewBox="0 0 781 553" fill="none" xmlns="http://www.w3.org/2000/svg">
<path d="M408.477 84.7998C437.4 25.8445 491.047 -5.87408 545.563 5.18555C585.812 13.32 618.156 44.2762 634.796 86.7656C637.686 86.4806 640.632 86.2686 643.601 86.2686C700.733 86.2686 752.971 135.303 771.425 204.289L771.407 204.298C789.132 270.655 770.619 336.868 721.784 381.265V381.266C680.863 418.451 629.578 437.749 579.742 455.227L569.798 458.703C508.25 480.161 451.036 500.207 409.751 547.972L408.643 549.253L406.973 548.967L383.308 544.9L382.518 544.765L381.901 544.253C381.304 543.757 380.469 543.118 379.621 542.419L379.253 542.76L377.224 540.416C336.34 493.176 275.303 474.3 215.208 455.787H215.207C160.577 438.948 103.252 421.337 59.1726 381.302L59.1707 381.3C17.383 343.275 -2.55217 288.51 4.33765 231.083L4.33862 231.08C11.6531 170.643 47.9119 116.003 95.1306 95.3008C127.07 81.2898 160.066 83.8337 191.283 101.169C196.211 89.5867 202.109 78.7185 208.724 69.623C235.5 32.7047 269.634 11.7552 305.059 11.4941H305.108C338.35 11.7923 368.7 28.8189 393.118 61.7119L394.405 63.4648C399.511 70.5102 404.034 77.8944 408.174 85.4346C408.272 85.2229 408.372 85.0107 408.477 84.7998ZM616.895 123.037C598.328 129.374 579.94 142.289 562.754 161.608L562.755 161.609C514.432 215.999 461.153 291.389 432.979 381.272C430.669 390.412 428.102 399.433 425.454 408.325C418.728 435.493 414.542 463.923 413.428 493.372C413.871 494.333 414.289 495.306 414.685 496.284C417.918 492.149 421.057 488.096 424.08 484.105L424.086 484.099C437.535 466.453 451.561 448.048 474.094 426.499L474.097 426.495C508.185 394.012 535.473 362.469 557.537 330.108C589.366 283.409 625.679 212.821 619.431 140.227V140.226C618.927 134.344 618.058 128.608 616.895 123.037ZM137.326 118.32C126.395 118.32 115.439 120.638 104.64 125.373L104.638 125.374C67.2243 141.75 37.6576 185.432 31.3865 234.488L31.2429 235.648C25.6606 282.085 41.467 324.806 75.7703 355.991C115.329 391.948 169.212 408.592 222.145 424.9L226.389 426.208L226.36 426.242C275.443 441.338 326.134 457.477 367.536 490.245C367.308 486.389 367.01 482.519 366.711 478.615C361.3 473.182 355.682 467.903 350.102 462.843V462.842C341.453 455.022 333.129 447.451 326.355 439.585V439.584C315.767 427.331 304.355 415.104 292.695 402.65L292.693 402.648C235.831 341.808 170.248 271.835 175.874 164.426C176.434 153.653 178.36 142.25 181.262 130.941C166.725 122.627 151.963 118.32 137.326 118.32ZM643.715 118.285C644.904 124.363 645.857 130.601 646.385 137.014L646.546 138.976C652.976 222.011 613.093 299.702 578.621 350.222C555.344 384.394 526.713 417.513 491.179 451.385L491.178 451.386C488.697 453.749 486.358 456.062 484.126 458.337C509.567 446.55 536.069 437.199 562.094 428.102H562.094C613.004 410.324 664.885 392.189 704.291 356.876V356.848L705.273 355.955C745.001 319.851 759.801 268.682 745.949 215.234L745.616 213.972C730.417 157.175 688.235 118.334 643.715 118.285ZM205.37 148.688C204.112 154.821 203.22 160.792 202.93 166.393L202.751 169.862C199.682 256.748 252.097 315.88 305.642 373.279L310.895 378.904L310.897 378.905C322.779 391.634 334.476 404.164 345.33 416.737L346.4 417.952C350.388 422.406 355.264 427.05 360.597 431.954C354.879 401.864 345.833 371.482 333.468 341.402L332.143 338.212C306.695 277.493 268.409 218.108 218.23 161.646V161.645C214.022 156.928 209.726 152.638 205.37 148.688ZM303.992 43.5322C277.571 44.232 251.049 60.5645 229.358 90.4893L229.356 90.4932C223.907 97.9873 219.141 107.404 214.993 117.531C221.918 123.259 228.797 129.542 235.494 136.874L236.941 138.478L236.943 138.48C288.523 196.499 328.269 257.856 355.162 320.975L356.433 323.981V323.982C365.567 345.786 373.082 367.793 378.982 389.812C379.032 383.929 379.064 378.048 379.064 372.173V368.991C379.039 353.075 378.631 336.633 378.247 319.89L377.958 307.704C376.575 246.738 376.404 180.008 394.529 121.25C388.61 107.604 381.548 94.6414 372.793 82.8926L372.791 82.8906C353.427 56.8539 330.248 43.5107 305.753 43.5107H305.25L303.992 43.5322ZM410.592 172.378C403.573 215.49 403.986 262.216 405.062 308.655L405.309 318.951V318.952C405.747 337.048 406.158 354.895 406.158 372.173C406.158 373.236 406.155 374.301 406.151 375.366C406.36 374.669 406.569 373.972 406.781 373.275C408.812 365.292 410.619 357.4 411.876 349.6L411.851 349.569L412.054 348.253C417.617 312.252 424.992 240.178 410.592 172.378ZM540.99 36.7227C499.001 28.2969 456.785 52.1762 432.995 98.8447L431.974 100.943C429.013 107.033 426.504 113.34 424.12 119.812C443.668 172.349 447.399 231.042 445.733 279.244C474.817 223.756 510.563 176.186 544.071 138.48L544.073 138.478C563.581 116.574 584.855 101.356 606.923 93.2432C593.102 63.4959 569.508 42.4877 540.99 36.7217V36.7227Z" fill="#FFC803" stroke="#FFC803" stroke-width="6"/>
</svg>
