<svg width="357" height="195" viewBox="0 0 357 195" fill="none" xmlns="http://www.w3.org/2000/svg">
<path d="M168.255 194.978C163.557 173.083 135.329 165.206 110.441 158.258C101.764 155.834 93.5681 153.531 86.7112 150.724C58.5638 139.231 26.6581 126.203 8.74608 94.937C-2.92869 74.5573 -2.90868 48.1383 8.76609 27.6576C19.3014 9.21686 37.0934 -1.06391 58.144 0.0873788C96.7467 2.02638 127.833 35.6358 153.141 102.814C160.138 121.396 166.715 140.322 172.673 159.045C173.712 162.297 175.311 165.872 176.951 169.568C180.309 177.143 183.768 185 184.347 192.574L168.235 194.957L168.255 194.978ZM55.2053 16.5083C36.7336 16.5083 27.0579 28.6675 22.9197 35.9186C14.0837 51.37 14.0637 71.3054 22.8798 86.676C37.993 113.055 65.8805 124.426 92.8484 135.454C98.8257 137.898 106.582 140.059 114.799 142.362C127.793 145.977 142.266 150.037 154.701 156.5C149.483 140.544 143.846 124.507 137.908 108.692C115.158 48.2797 88.8102 18.1444 57.3443 16.5487L55.2253 16.4881L55.2053 16.5083Z" fill="#E0B000"/>
<path d="M188.55 194.979L172.438 192.596C173.017 185.002 176.496 177.145 179.854 169.55C181.473 165.874 183.073 162.319 184.112 159.067C190.15 140.162 196.727 121.237 203.644 102.836C228.952 35.6579 260.038 2.0485 298.641 0.109499C319.592 -0.981191 337.504 9.23899 348.039 27.7201C359.714 48.2009 359.714 74.5794 348.039 94.9591C330.087 126.266 298.201 139.273 270.074 150.746C263.217 153.553 255.021 155.836 246.344 158.26C221.456 165.228 193.228 173.105 188.51 195L188.55 194.979ZM301.58 16.5102L299.461 16.5708C268.015 18.1463 241.666 48.3018 218.917 108.714C213.019 124.367 207.382 140.425 202.124 156.502C214.559 150.039 229.032 145.979 242.026 142.364C250.243 140.061 257.999 137.9 263.977 135.456C290.924 124.448 318.792 113.077 333.925 86.6779C342.741 71.3275 342.741 51.3921 333.905 35.9407C329.787 28.6694 320.071 16.5102 301.58 16.5102Z" fill="#E0B000"/>
</svg>
